<?xml version="1.0" standalone="no"?>

<!-- logo coded by hand for the uamp music player -->

<svg viewBox="0 0 100 100" version="1.1" xmlns="http://www.w3.org/2000/svg">
    <!-- suqre -->
    <!--polygon points="50,10 90,50 50,90 10,50" /-->
    <!--line x1="50" y1="23" x2="77" y2="50" stroke="#000" stroke-width="7" />
    <line x1="50" y1="77" x2="23" y2="50" stroke="#000" stroke-width="7" />
    <line x1="77" y1="50" x2="50" y2="77" stroke="#000" stroke-width="7" />
    <line x1="23" y1="50" x2="50" y2="23" stroke="#000" stroke-width="7" />
    <circle cx="50" cy="23" r="3.5" fill="#000" />
    <circle cx="77" cy="50" r="3.5" fill="#000" />
    <circle cx="50" cy="77" r="3.5" fill="#000" />
    <circle cx="23" cy="50" r="3.5" fill="#000" /-->
    <line x1="50" y1="23" x2="77" y2="50" stroke="#999" stroke-width="4" stroke-linecap="round" />
    <line x1="50" y1="77" x2="23" y2="50" stroke="#999" stroke-width="4" stroke-linecap="round" />

    <!-- black outline -->
    <!--line x1="70" y1="15" x2="65" y2="65" stroke="#000" stroke-width="9"/>
    <line x1="70" y1="15" x2="55" y2="45" stroke="#000" stroke-width="9"/>
    <line x1="30" y1="85" x2="45" y2="55" stroke="#000" stroke-width="9"/>
    <line x1="30" y1="85" x2="35" y2="35" stroke="#000" stroke-width="9"/>
    <line x1="55" y1="45" x2="35" y2="35" stroke="#000" stroke-width="9"/>
    <line x1="65" y1="65" x2="45" y2="55" stroke="#000" stroke-width="9"/-->
    <!-- black round outward -->
    <!--circle cx="70" cy="15" r="4.5" fill="#000" />
    <circle cx="65" cy="65" r="4.5" fill="#000" />
    <circle cx="35" cy="35" r="4.5" fill="#000" />
    <circle cx="30" cy="85" r="4.5" fill="#000" /-->
    <!-- black round inward -->
    <!--path d="M 53.65 37.65 A 1.5 1.5 0 0 1 51.62 38.28 L 55 45" fill="#000"/>
    <path d="M 46.35 62.35 A 1.5 1.5 0 0 1 48.38 61.72 L 45 55" fill="#000"/-->

    <!-- white outline -->
    <line x1="70" y1="15" x2="65" y2="65" stroke="#FFF" stroke-width="6" stroke-linecap="round" />
    <line x1="70" y1="15" x2="55" y2="45" stroke="#FFF" stroke-width="6" stroke-linecap="round" />
    <line x1="30" y1="85" x2="45" y2="55" stroke="#FFF" stroke-width="6" stroke-linecap="round" />
    <line x1="30" y1="85" x2="35" y2="35" stroke="#FFF" stroke-width="6" stroke-linecap="round" />
    <line x1="55" y1="45" x2="35" y2="35" stroke="#FFF" stroke-width="6" stroke-linecap="round" />
    <line x1="65" y1="65" x2="45" y2="55" stroke="#FFF" stroke-width="6" stroke-linecap="round" />
    <!-- white round inward (eyeballed values) -->
    <path d="M 55.021 38.25 A 3 3 0 0 1 51 39.646 L 55 45" fill="#FFF"/>
    <path d="M 44.979 61.75 A 3 3 0 0 1 49 60.354 L 45 55" fill="#FFF"/>
    <!-- white fill -->
    <polygon points="70,15 65,65 45,55 30,85 35,35 55,45" fill="#FFF" />

    <!-- yellow outline -->
    <line x1="67.5" y1="24" x2="61" y2="59" stroke="#EC0" stroke-width="3" stroke-linecap="round" />
    <line x1="67.5" y1="24" x2="58" y2="52" stroke="#EC0" stroke-width="3" stroke-linecap="round" />
    <line x1="32.5" y1="76" x2="39" y2="41" stroke="#EC0" stroke-width="3" stroke-linecap="round" />
    <line x1="32.5" y1="76" x2="42" y2="48" stroke="#EC0" stroke-width="3" stroke-linecap="round" />
    <line x1="58" y1="52" x2="39" y2="41" stroke="#EC0" stroke-width="3" stroke-linecap="round" />
    <line x1="61" y1="59" x2="42" y2="48" stroke="#EC0" stroke-width="3" stroke-linecap="round" />
    <!-- yellow fill inwarc (eyeballed values) -->
    <path d="M 55.6 48.88 A 1.5 1.5 0 0 0 57.74 48.1 L 58 52" fill="#EC0"/>
    <path d="M 44.4 51.12 A 1.5 1.5 0 0 0 42.26 51.9 L 42 48" fill="#EC0"/>
    <!-- yellow fill -->
    <polygon points="68,24 61,59 42,48 32,76 39,41 58,52" fill="#EC0" />

    <!-- suqre over -->
    <!--line x1="74" y1="53" x2="53" y2="74" stroke="#000" stroke-width="7" />
    <line x1="26" y1="47" x2="47" y2="26" stroke="#000" stroke-width="7" /-->
    <line x1="77" y1="50" x2="50" y2="77" stroke="#999" stroke-width="4" stroke-linecap="round" />
    <line x1="23" y1="50" x2="50" y2="23" stroke="#999" stroke-width="4" stroke-linecap="round" />
</svg>
