<?xml version="1.0" standalone="no"?>
<!-- logo coded by hand for the uamp music player -->
<svg viewBox="0 0 100 100" version="1.1" xmlns="http://www.w3.org/2000/svg">
    <line x1="50" y1="23" x2="77" y2="50" stroke="#999" stroke-width="4"/>
    <line x1="50" y1="77" x2="23" y2="50" stroke="#999" stroke-width="4"/>
    <circle cx="50" cy="23" r="2" fill="#999"/>
    <circle cx="77" cy="50" r="2" fill="#999"/>
    <circle cx="50" cy="77" r="2" fill="#999"/>
    <circle cx="23" cy="50" r="2" fill="#999"/>
    <line x1="70" y1="15" x2="65" y2="65" stroke="#FFF" stroke-width="6"/>
    <line x1="70" y1="15" x2="55" y2="45" stroke="#FFF" stroke-width="6"/>
    <line x1="30" y1="85" x2="45" y2="55" stroke="#FFF" stroke-width="6"/>
    <line x1="30" y1="85" x2="35" y2="35" stroke="#FFF" stroke-width="6"/>
    <line x1="55" y1="45" x2="35" y2="35" stroke="#FFF" stroke-width="6"/>
    <line x1="65" y1="65" x2="45" y2="55" stroke="#FFF" stroke-width="6"/>
    <circle cx="70" cy="15" r="3" fill="#FFF" />
    <circle cx="65" cy="65" r="3" fill="#FFF" />
    <circle cx="35" cy="35" r="3" fill="#FFF" />
    <circle cx="30" cy="85" r="3" fill="#FFF" />
    <path d="M 55.021 38.25 A 3 3 0 0 1 51 39.646 L 55 45" fill="#FFF"/>
    <path d="M 44.979 61.75 A 3 3 0 0 1 49 60.354 L 45 55" fill="#FFF"/>
    <polygon points="70,15 65,65 45,55 30,85 35,35 55,45" fill="#FFF" />
    <line x1="67.5" y1="24" x2="61" y2="59" stroke="#EC0" stroke-width="3"/>
    <line x1="67.5" y1="24" x2="58" y2="52" stroke="#EC0" stroke-width="3"/>
    <line x1="32.5" y1="76" x2="39" y2="41" stroke="#EC0" stroke-width="3"/>
    <line x1="32.5" y1="76" x2="42" y2="48" stroke="#EC0" stroke-width="3"/>
    <line x1="58" y1="52" x2="39" y2="41" stroke="#EC0" stroke-width="3"/>
    <line x1="61" y1="59" x2="42" y2="48" stroke="#EC0" stroke-width="3"/>
    <circle cx="67.5" cy="24" r="1.5" fill="#EC0"/>
    <circle cx="61" cy="59" r="1.5" fill="#EC0"/>
    <circle cx="39" cy="41" r="1.5" fill="#EC0"/>
    <circle cx="32.5" cy="76" r="1.5" fill="#EC0"/>
    <path d="M 55.6 48.88 A 1.5 1.5 0 0 0 57.74 48.1 L 58 52" fill="#EC0"/>
    <path d="M 44.4 51.12 A 1.5 1.5 0 0 0 42.26 51.9 L 42 48" fill="#EC0"/>
    <polygon points="68,24 61,59 42,48 32,76 39,41 58,52" fill="#EC0"/>
    <line x1="77" y1="50" x2="50" y2="77" stroke="#999" stroke-width="4"/>
    <line x1="23" y1="50" x2="50" y2="23" stroke="#999" stroke-width="4"/>
</svg>
